<?xml version="1.0" standalone="no"?>
<!DOCTYPE svg PUBLIC "-//W3C//DTD SVG 20010904//EN"
 "http://www.w3.org/TR/2001/REC-SVG-20010904/DTD/svg10.dtd">
<svg version="1.0" xmlns="http://www.w3.org/2000/svg"
 width="200.000000pt" height="200.000000pt" viewBox="0 0 200.000000 200.000000"
 preserveAspectRatio="xMidYMid meet">
<metadata>
Created by potrace 1.14, written by Peter Selinger 2001-2017
</metadata>
<g transform="translate(0.000000,200.000000) scale(0.100000,-0.100000)"
fill="#000000" stroke="none">
<path d="M640 1556 l-355 -184 -1 -371 -2 -371 32 -19 c17 -10 141 -75 276
-144 135 -69 282 -145 326 -169 l82 -42 93 46 c78 39 400 206 579 300 l45 23
0 373 0 374 -130 67 c-240 125 -583 301 -587 301 -1 0 -163 -83 -358 -184z
m463 85 c51 -26 196 -101 322 -166 127 -65 235 -121 240 -126 6 -5 9 -128 8
-341 -2 -397 -1 -368 -12 -368 -5 0 -152 -74 -328 -165 -175 -91 -324 -165
-332 -165 -13 0 -119 52 -371 184 -80 42 -181 95 -225 117 l-80 41 2 332 c0
182 1 339 2 348 1 9 13 23 29 30 201 103 574 296 597 310 17 10 36 18 43 18 7
0 55 -22 105 -49z"/>
<path d="M1015 1187 c-2 -6 -6 -21 -8 -32 -3 -14 -5 -12 -6 8 -1 23 -5 28 -22
25 -15 -2 -41 -39 -92 -130 -40 -70 -75 -127 -78 -128 -4 0 -40 59 -80 130
-61 107 -78 130 -96 130 l-23 0 0 -195 c0 -167 2 -196 15 -202 9 -3 19 -2 22
1 4 4 7 74 7 156 -1 83 2 150 5 150 3 0 35 -52 70 -115 36 -63 70 -115 77
-115 11 0 36 31 59 75 54 100 88 154 93 151 4 -2 7 -70 6 -150 -1 -120 2 -146
14 -151 9 -3 19 -1 22 6 5 8 10 8 14 1 4 -6 13 -9 21 -5 12 4 15 32 15 154 0
82 4 149 9 149 5 0 27 -24 49 -53 22 -30 46 -60 54 -68 7 -8 40 -48 72 -89 32
-41 66 -81 74 -87 32 -26 37 1 35 189 -1 100 -2 186 -2 191 -1 4 -10 7 -20 7
-18 0 -19 -10 -19 -151 0 -83 -2 -153 -5 -155 -3 -3 -60 65 -127 150 -120 152
-147 178 -155 153z m-8 -149 c-3 -7 -5 -2 -5 12 0 14 2 19 5 13 2 -7 2 -19 0
-25z m0 -85 c-3 -10 -5 -4 -5 12 0 17 2 24 5 18 2 -7 2 -21 0 -30z m0 -45 c-3
-8 -6 -5 -6 6 -1 11 2 17 5 13 3 -3 4 -12 1 -19z m0 -40 c-3 -8 -6 -5 -6 6 -1
11 2 17 5 13 3 -3 4 -12 1 -19z m0 -40 c-3 -8 -6 -5 -6 6 -1 11 2 17 5 13 3
-3 4 -12 1 -19z"/>
</g>
</svg>
